<svg xmlns="http://www.w3.org/2000/svg" id="Layer_1" data-name="Layer 1" viewBox="0 0 314.72 42.9"><path d="m25.57,42.69c-.15,0-.26-.07-.32-.2-.06-.13-.05-.26.03-.37.57-.84.65-1.84.23-2.99-.57-1.57-1.84-4.92-3.79-10.05H6.95c-2.38,6.24-3.68,9.63-3.91,10.17-.27.84-.35,1.51-.26,2.01.09.5.26.86.49,1.09l.4.34H0c.8-.42,1.61-1.65,2.41-3.68L15.92,4.65h.69c7.66,18.92,12.22,30.24,13.67,33.95.58,1.46,1.26,2.62,2.07,3.5.12.11.14.24.09.37-.06.13-.16.2-.32.2h-6.55ZM7.18,28.5h14.36c-.96-2.53-2.04-5.34-3.25-8.45-1.21-3.1-2.15-5.57-2.84-7.41l-1.09-2.76c-2.64,6.82-5.04,13.02-7.18,18.61Z"></path><path d="m46.48,39.58c.23.46.5,1,.8,1.61-2.07,1.03-4.08,1.55-6.03,1.55-2.45,0-4.19-.65-5.2-1.95-1.01-1.3-1.52-3.14-1.52-5.52V15.57h-4.08v-.63h4.08v-5l4.19-3.22v8.22h4.08v.63h-4.08v21.26c0,1.53.3,2.77.89,3.71.59.94,1.45,1.41,2.56,1.41,1.46,0,2.89-.78,4.31-2.36Z"></path><path d="m62.85,39.64c3.71,0,6.99-1.61,9.82-4.83l.34.52c-3.83,5.02-8.12,7.53-12.87,7.53-3.37,0-6.36-1.35-8.96-4.05-2.6-2.7-3.91-6.14-3.91-10.31,0-3.71,1.16-6.91,3.48-9.59,2.32-2.68,5.39-4.16,9.22-4.42,1.57-.11,3.02,0,4.37.32,1.34.33,2.45.8,3.33,1.41.88.61,1.67,1.3,2.36,2.07.69.77,1.22,1.54,1.58,2.33.36.79.66,1.5.89,2.15.23.65.38,1.17.46,1.55l.11.63c-1.88-.42-3.81-.54-5.8-.34-1.99.19-3.94.6-5.83,1.24-1.9.63-3.59,1.29-5.08,1.98-1.49.69-2.7,1.28-3.62,1.78l-1.38.8c.65,2.83,1.99,5.08,4.02,6.75,2.03,1.67,4.52,2.5,7.47,2.5Zm-11.66-9.82c.27-.15.63-.37,1.09-.66.46-.29,1.37-.78,2.73-1.47,1.36-.69,2.71-1.29,4.05-1.81s2.93-.99,4.77-1.41c1.84-.42,3.56-.63,5.17-.63,0-.84-.22-1.79-.66-2.84-.44-1.05-1.05-2.07-1.84-3.04-.79-.98-1.83-1.73-3.13-2.27-1.3-.54-2.7-.67-4.19-.4-2.61.42-4.62,1.69-6.06,3.82s-2.15,4.7-2.15,7.73c0,.96.08,1.95.23,2.99Z"></path><path d="m81.87,36.43c0,1.53.06,2.64.17,3.33.12.69.31,1.17.58,1.44.27.27.75.54,1.44.8v.52h-8.67v-.63c.92-.19,1.53-.63,1.84-1.32s.46-2.09.46-4.19V3.22l-2.3,1.21v-.8l5.86-3.62h.63v36.43Z"></path><path d="m92.96,36.48c0,1.53.06,2.63.17,3.3.12.67.31,1.14.57,1.41.27.27.75.56,1.44.86v.46h-8.62v-.57c.88-.23,1.48-.68,1.81-1.35.33-.67.49-2.06.49-4.17v-18.27l-2.3,1.15v-.8l5.8-3.56h.63v21.54Zm-.66-28.47c-.4.4-.89.6-1.46.6s-1.06-.2-1.47-.6c-.4-.4-.6-.89-.6-1.47s.19-1.06.57-1.46c.38-.4.88-.6,1.49-.6.57,0,1.06.19,1.46.57.4.38.6.88.6,1.49,0,.57-.2,1.06-.6,1.47Z"></path><path d="m113.3,39.64c3.71,0,6.99-1.61,9.82-4.83l.34.52c-3.83,5.02-8.12,7.53-12.87,7.53-3.37,0-6.36-1.35-8.96-4.05-2.6-2.7-3.91-6.14-3.91-10.31,0-3.71,1.16-6.91,3.48-9.59,2.32-2.68,5.39-4.16,9.22-4.42,1.57-.11,3.02,0,4.37.32,1.34.33,2.45.8,3.33,1.41.88.61,1.67,1.3,2.36,2.07.69.77,1.22,1.54,1.58,2.33.36.79.66,1.5.89,2.15.23.65.38,1.17.46,1.55l.11.63c-1.88-.42-3.81-.54-5.8-.34-1.99.19-3.94.6-5.83,1.24-1.9.63-3.59,1.29-5.08,1.98-1.49.69-2.7,1.28-3.62,1.78l-1.38.8c.65,2.83,1.99,5.08,4.02,6.75,2.03,1.67,4.52,2.5,7.47,2.5Zm-11.66-9.82c.27-.15.63-.37,1.09-.66.46-.29,1.37-.78,2.73-1.47,1.36-.69,2.71-1.29,4.05-1.81s2.93-.99,4.77-1.41c1.84-.42,3.56-.63,5.17-.63,0-.84-.22-1.79-.66-2.84-.44-1.05-1.05-2.07-1.84-3.04-.79-.98-1.83-1.73-3.13-2.27-1.3-.54-2.7-.67-4.19-.4-2.61.42-4.62,1.69-6.06,3.82s-2.15,4.7-2.15,7.73c0,.96.08,1.95.23,2.99Z"></path><path d="m137.88,14.59c2.07-.34,3.7-.02,4.88.98l-1.21,3.62c-1.07-.92-2.11-1.51-3.1-1.78-1-.27-1.84-.28-2.53-.03-.69.25-1.31.57-1.87.98-.56.4-.95.8-1.18,1.18l-.4.57v16.32c0,1.53.06,2.64.17,3.33.11.69.31,1.17.57,1.44.27.27.75.54,1.44.8v.52h-8.68v-.63c.92-.19,1.53-.63,1.84-1.32.31-.69.46-2.09.46-4.19v-18.16l-2.3,1.15v-.8l5.86-3.62h.63v3.96c.04-.11.11-.25.2-.4.1-.15.32-.46.66-.92.34-.46.71-.87,1.09-1.24.38-.36.89-.72,1.52-1.06.63-.34,1.27-.57,1.92-.69Z"></path><path d="m182.35,4.65c5.75,0,10.45,1.68,14.1,5.03,3.66,3.35,5.49,7.52,5.49,12.5,0,3.18-.56,6.08-1.67,8.7-1.11,2.62-2.61,4.79-4.48,6.49-1.88,1.7-4.03,3.02-6.46,3.94-2.43.92-5.01,1.38-7.73,1.38h-9.88c-.15,0-.26-.07-.32-.2-.06-.13-.03-.26.09-.37,1.15-1.3,1.72-2.37,1.72-3.22V8.45c0-.88-.57-1.95-1.72-3.22-.12-.11-.14-.24-.09-.37.06-.13.16-.2.32-.2h10.63Zm-.69,37.69c4.86,0,8.56-1.72,11.09-5.17,2.53-3.45,3.79-8.27,3.79-14.48,0-2.45-.3-4.7-.89-6.75-.59-2.05-1.38-3.72-2.36-5.03-.98-1.3-2.11-2.4-3.39-3.3-1.28-.9-2.57-1.54-3.85-1.92-1.28-.38-2.56-.57-3.82-.57h-4.42v37.23h3.85Z"></path><path d="m220.21,39.64c3.71,0,6.99-1.61,9.82-4.83l.34.52c-3.83,5.02-8.12,7.53-12.87,7.53-3.37,0-6.36-1.35-8.96-4.05-2.6-2.7-3.91-6.14-3.91-10.31,0-3.71,1.16-6.91,3.48-9.59,2.32-2.68,5.39-4.16,9.22-4.42,1.57-.11,3.02,0,4.37.32,1.34.33,2.45.8,3.33,1.41.88.61,1.67,1.3,2.36,2.07.69.77,1.22,1.54,1.58,2.33.36.79.66,1.5.89,2.15.23.65.38,1.17.46,1.55l.11.63c-1.88-.42-3.81-.54-5.8-.34-1.99.19-3.94.6-5.83,1.24-1.9.63-3.59,1.29-5.08,1.98-1.49.69-2.7,1.28-3.62,1.78l-1.38.8c.65,2.83,1.99,5.08,4.02,6.75,2.03,1.67,4.52,2.5,7.47,2.5Zm-11.66-9.82c.27-.15.63-.37,1.09-.66.46-.29,1.37-.78,2.73-1.47,1.36-.69,2.71-1.29,4.05-1.81s2.93-.99,4.77-1.41c1.84-.42,3.56-.63,5.17-.63,0-.84-.22-1.79-.66-2.84-.44-1.05-1.05-2.07-1.84-3.04-.79-.98-1.83-1.73-3.13-2.27-1.3-.54-2.7-.67-4.19-.4-2.61.42-4.62,1.69-6.06,3.82s-2.15,4.7-2.15,7.73c0,.96.08,1.95.23,2.99Z"></path><path d="m258.25,35.56c0,2.26.15,3.84.46,4.74.31.9.92,1.48,1.84,1.75v.46h-8.5v-.57c.84-.23,1.42-.78,1.72-1.67.31-.88.46-2.45.46-4.71v-10.11c0-2.91-.62-5.12-1.87-6.64-1.25-1.51-3.05-2.27-5.43-2.27-2.22,0-4.75,1.07-7.58,3.22v16.72c0,1.53.06,2.64.17,3.33s.31,1.16.57,1.41c.27.25.75.53,1.44.83l-.06.46h-8.56v-.57c.88-.23,1.48-.68,1.81-1.35.33-.67.49-2.06.49-4.17v-18.27l-2.3,1.15v-.75c3.87-2.37,5.8-3.58,5.8-3.62h.63v4.02c3.95-2.68,7.41-4.02,10.4-4.02,2.76,0,4.86.81,6.32,2.44,1.46,1.63,2.18,3.96,2.18,6.98v11.2Z"></path><path d="m276.06,39.58c.23.46.5,1,.8,1.61-2.07,1.03-4.08,1.55-6.03,1.55-2.45,0-4.19-.65-5.2-1.95-1.01-1.3-1.52-3.14-1.52-5.52V15.57h-4.08v-.63h4.08v-5l4.19-3.22v8.22h4.08v.63h-4.08v21.26c0,1.53.3,2.77.89,3.71.59.94,1.45,1.41,2.56,1.41,1.46,0,2.89-.78,4.31-2.36Z"></path><path d="m301.74,35.85c0,2.26.15,3.83.46,4.71.31.88.92,1.44,1.84,1.67l-.12.63-.75-.11c-1.38,0-2.58-.45-3.59-1.35-1.01-.9-1.62-2.02-1.81-3.36-1.03,1.65-2.52,2.89-4.45,3.73-1.93.84-3.87,1.22-5.8,1.12-1.93-.1-3.76-.69-5.49-1.78-1.72-1.09-2.89-2.61-3.5-4.57-.54-1.61-.63-3.08-.29-4.42.34-1.34.96-2.54,1.84-3.59.88-1.05,2.03-1.92,3.45-2.61,1.42-.69,2.9-1.18,4.45-1.47,1.55-.29,3.19-.34,4.91-.17s3.33.58,4.83,1.24v-2.13c0-2.41-.66-4.3-1.98-5.66-1.32-1.36-3.13-2.04-5.43-2.04-1.07,0-2.04.25-2.9.75-.86.5-1.53,1.09-2.01,1.78-.48.69-.88,1.38-1.21,2.07-.33.69-.55,1.28-.66,1.78l-.12.75-4.37-.98c.08-.19.19-.44.34-.75.15-.31.54-.85,1.15-1.64.61-.78,1.32-1.48,2.12-2.1.8-.61,1.92-1.17,3.33-1.67,1.42-.5,2.95-.75,4.6-.75,3.29,0,5.98.86,8.04,2.59,2.07,1.72,3.1,4.14,3.1,7.24v11.09Zm-4.02,1.15v-10.74c-1.92-.84-3.81-1.18-5.69-1.01-1.88.17-3.53.66-4.97,1.47-1.44.8-2.53,1.95-3.27,3.45-.75,1.49-.99,3.14-.72,4.94.31,1.72,1.2,3.19,2.67,4.4,1.47,1.21,3.32,1.71,5.54,1.52.88-.08,1.7-.27,2.47-.57.77-.31,1.38-.65,1.84-1.03.46-.38.86-.76,1.21-1.12.34-.36.57-.66.69-.89l.23-.4Z"></path><path d="m312.54,36.43c0,1.53.06,2.64.17,3.33.12.69.31,1.17.58,1.44.27.27.75.54,1.44.8v.52h-8.67v-.63c.92-.19,1.53-.63,1.84-1.32s.46-2.09.46-4.19V3.22l-2.3,1.21v-.8l5.86-3.62h.63v36.43Z"></path></svg>